<svg width="78" height="175" viewBox="0 0 78 175" fill="none" xmlns="http://www.w3.org/2000/svg">
<path d="M50.3697 174.79C46.0997 175.32 42.3697 173.13 38.2797 172.67C37.9552 172.659 37.6429 172.543 37.3898 172.34C36.4907 171.348 35.8951 170.118 35.6735 168.798C35.452 167.478 35.6138 166.121 36.1398 164.89C37.8698 161.22 35.0197 155.82 40.9297 153.64C46.8397 151.46 52.1697 148.3 52.9997 141C53.1697 139.45 54.5797 137.79 52.2097 137C50.2097 136.3 49.1197 137.9 48.2097 139.24C46.3797 141.91 45.0897 144.87 41.8797 146.5C39.2097 147.86 37.0797 147.94 34.6797 146.13C30.8897 143.26 26.8997 140.66 23.6797 137.13C22.5397 135.89 21.1697 133.66 19.3097 135.49C18.5081 136.221 18.0075 137.224 17.9058 138.304C17.8041 139.383 18.1086 140.462 18.7597 141.33C20.8501 144.45 23.6366 147.041 26.8997 148.9C32.3497 151.99 33.5597 155.9 31.8997 161.2C31.0674 163.879 30.7717 166.696 31.0297 169.49C31.2597 172.26 29.9097 173.49 27.4697 173.77C17.8397 174.97 8.32973 170.77 3.51973 160.48C-1.29027 150.19 0.289728 140.39 1.51973 130.26C1.82973 127.58 2.38973 124.77 2.82973 122.08C3.52973 117.84 5.49975 115.98 9.50975 115.7C11.4865 115.583 13.3851 114.887 14.9697 113.7C18.3697 111.3 22.4697 113.58 25.8497 114.24C34.7897 115.97 43.3597 114.19 52.0397 113.3C55.5697 112.93 58.9097 114.04 62.3697 113.88C64.3697 113.79 64.4697 115.76 64.9297 117C67.2197 123.13 69.0098 129.49 75.4798 132.89C77.7298 134.07 77.4798 136.84 77.3898 138.68C76.9382 143.564 77.0119 148.482 77.6097 153.35C78.0097 156.07 76.4497 158.99 74.1897 161.16C70.8397 164.38 67.6097 167.74 64.2897 171.01C60.2697 174.76 55.1197 174.12 50.3697 174.79Z" fill="#FEFEFE"/>
<path d="M68.7397 25.0003C69.6632 32.8681 70.0442 40.7902 69.8797 48.7103C69.7197 62.2103 67.3097 75.3803 64.5797 88.5503C63.5797 93.5003 63.3497 98.6303 62.8997 103.69C62.7497 105.42 62.8997 107.35 60.3997 106.69C55.3997 105.46 50.3297 106.43 45.5197 107C38.0397 107.89 30.7697 107.13 23.3797 106.84C13.9097 106.47 13.4797 106.72 14.0297 97.5003C14.5304 88.3788 15.6463 79.3015 17.3697 70.3303C18.1097 66.5903 17.1697 63.4403 16.4797 60.2603C14.5912 52.1998 13.6979 43.9382 13.8197 35.6603C13.9697 29.9103 13.1297 24.1503 12.9497 18.3803C12.8197 14.1103 13.9497 9.97033 15.0197 5.88033C15.179 5.33269 15.4557 4.82628 15.8304 4.39629C16.2051 3.96631 16.669 3.62304 17.1897 3.39033C18.5797 3.00033 18.7097 4.66033 19.1897 5.60033C22.2597 11.5103 23.2397 18.1303 23.6397 24.4703C24.1797 32.8603 25.2997 41.1703 26.0897 49.4703C26.7597 56.6003 31.5497 62.0503 37.3997 65.8003C42.4697 69.0503 49.0297 65.2203 51.7797 57.5503C55.3697 47.5503 57.7797 37.1403 57.6897 26.5003C57.6897 21.2503 59.7997 16.5803 59.9597 11.5003C60.0497 8.77033 62.4397 10.1303 63.8497 9.86033C66.4197 9.36033 67.6797 11.0503 67.7397 13.1203C67.8597 17.3003 69.8397 21.2403 68.7397 25.0003Z" fill="#FEFEFE"/>
<path d="M45.8786 21.3003C45.2586 28.7703 47.1686 35.8403 49.3786 42.8403C50.8486 47.5003 47.0886 57.0903 42.8086 59.3703C42.3853 59.6284 41.901 59.7691 41.4053 59.7779C40.9097 59.7867 40.4207 59.6633 39.9886 59.4204C34.6386 56.6504 29.6986 47.1004 30.9886 41.1704C33.5186 29.8004 35.8186 18.4303 35.8986 6.73034C35.9625 6.083 36.1244 5.44913 36.3786 4.85035C37.0786 2.68035 37.5586 -0.149667 40.3786 0.0403332C43.1986 0.230333 44.3786 2.96034 44.6886 5.36034C45.3986 10.6403 45.5386 16.0003 45.8786 21.3003Z" fill="#FEFEFE"/>
</svg>
